<svg width="888" height="242" viewBox="0 0 888 242" fill="#fff" xmlns="http://www.w3.org/2000/svg">
<path fill-rule="evenodd" clip-rule="evenodd" d="M130 1.05306C123.125 1.47506 104.675 2.34006 89 2.97506C58.97 4.19306 36.432 5.56906 29.116 6.63106C23.671 7.42106 19.171 11.2671 18.099 16.0441C17.266 19.7531 18.258 23.89 20.3 25.232C20.96 25.666 28.559 25.726 37.188 25.366L52.875 24.71L44.339 47.1051C39.644 59.4221 34.885 72.01 33.764 75.077L31.725 80.6551L20.338 81.6381C6.919 82.7971 5.875 83.467 5.222 91.335C4.836 95.988 5.095 97.095 7.021 99.021C9.082 101.082 9.887 101.218 16.635 100.648C20.686 100.306 24 100.146 24 100.294C24 100.442 21.49 107.074 18.423 115.031C8.495 140.788 0 163.969 0 165.3C0 168.076 2.503 169 10.026 169C16.65 169 17.925 168.705 19.734 166.75C20.879 165.513 27.233 150.147 33.855 132.603C40.476 115.06 46.255 100.346 46.697 99.904C47.138 99.463 54.7 98.8151 63.5 98.4631C81.447 97.7471 85.085 96.9791 87.984 93.2931C90.682 89.8641 90.724 82.9651 88.062 80.5561C86.358 79.0141 84.329 78.8431 71.324 79.1421C58.237 79.4441 56.488 79.293 56.208 77.844C55.786 75.652 76.392 23 77.672 23C82.209 23 149.323 18.822 151.238 18.421C157.456 17.117 160.527 6.52705 156 2.00005C153.773 -0.22695 151.967 -0.292941 130 1.05306ZM324 1.26506C320.715 2.88806 319.636 5.28605 306.561 40C295.871 68.385 295.357 69.4871 292.975 69.1611C291.614 68.9751 286.427 68.7501 281.448 68.6611C272.812 68.5071 272.039 68.6771 264.616 72.3451C246.554 81.2721 231.59 101.384 223.952 127C222.147 133.053 220.875 135.317 217.358 138.733C212.758 143.202 204.368 148 201.156 148C195.239 148 195.867 141.047 203.331 123.927C217.744 90.8701 218.714 76.361 206.926 70.179C203.331 68.293 201.478 67.9551 197.059 68.3761C190.34 69.0171 181.116 73.5561 174.147 79.6521L169 84.1551V80.159C169 73.6381 168.425 73.0001 162.548 73.0001C158.609 73.0001 156.868 73.488 155.529 74.968C153.923 76.743 124.237 151.935 122.656 158.233C121.611 162.399 124.055 164 131.461 164C136.066 164 138.309 163.526 139.735 162.25C140.81 161.288 144.974 151.95 148.986 141.5C152.999 131.05 158.241 118.675 160.635 114C165.168 105.149 175.324 92.355 180.5 88.973C184.331 86.47 190.147 86.4001 192.345 88.8291C195.443 92.2521 194.779 94.9931 184.561 120.968C175.788 143.272 174.369 152.326 178.628 158.834C180.587 161.826 187.459 164.95 192.145 164.978C198.094 165.014 208.471 161.249 215.598 156.47C219.265 154.012 222.543 152.024 222.882 152.054C223.222 152.084 224.85 154.219 226.5 156.799C230.371 162.851 233.812 164.542 241.846 164.34C249.766 164.141 258.039 160.306 266.125 153.085L271.751 148.062L272.393 152.904C273.336 160.014 276.469 163 282.984 163C292.179 163 302 156.701 302 150.804C302 148.227 301.694 148 298.223 148C296.145 148 293.395 147.264 292.112 146.366C287.568 143.183 287.94 141.982 319.38 58.24C330.171 29.497 339 4.91504 339 3.61504C339 1.76604 338.318 1.11405 335.875 0.62505C331.091 -0.33195 326.759 -0.0989352 324 1.26506ZM382.302 1.01204C379.415 2.17404 376.085 9.16705 344.683 80.0001C337.246 96.7751 327.705 117.925 323.481 127C311.875 151.932 309.855 156.922 310.192 159.833C310.483 162.357 310.825 162.516 316.561 162.793C321.476 163.03 323.122 162.692 325.269 161.003C328.853 158.184 341.619 132.684 354.396 102.822C366.517 74.495 376.054 52.63 376.48 52.194C377.065 51.595 375.809 65.7441 373.878 81.5001C371.828 98.2341 369.057 133.421 369.021 143.193C368.996 150.019 370.97 152 377.799 152C383.758 152 386.065 149.437 394.453 133.5C398.216 126.35 408.15 108.125 416.529 93.0001C424.908 77.8751 433.836 61.675 436.369 57C438.902 52.325 440.98 49.0861 440.987 49.8031C441.009 52.0211 438.045 64.5021 431.441 90.0001C423.405 121.026 420.695 135.151 420.586 146.569C420.507 154.873 420.733 155.989 423.264 159.819C425.988 163.939 426.114 164 431.903 164C436.125 164 438.42 163.481 440.058 162.154C442.269 160.363 442.299 160.121 441.031 154.146C438.575 142.571 440.12 132.109 451.981 80.0001C453.671 72.5751 458.491 52.6371 462.693 35.694L470.332 4.88805L468.136 2.69405C466.295 0.85605 464.814 0.501055 458.993 0.505055C453.367 0.509055 451.679 0.889055 450.116 2.50505C447.194 5.52505 411.001 68.136 396.501 95.257C392.749 102.273 389.531 107.864 389.349 107.682C389.03 107.363 390.065 96.113 395.485 41C396.865 26.975 398.289 12.4191 398.649 8.65307C399.16 3.32507 398.994 1.61006 397.903 0.919056C396.111 -0.215944 385.188 -0.149956 382.302 1.01204ZM619.758 1.12105C590.689 4.86405 562 16.0301 562 23.6011C562 26.8171 564.42 31.481 567.043 33.318C568.9 34.618 569.744 34.4301 575.799 31.3631C584.639 26.8851 598.028 22.628 599.292 23.892C599.91 24.51 592.998 44.7001 580.025 80.1781C568.898 110.605 557.985 140.833 555.775 147.351L551.757 159.201L553.791 161.235C556.655 164.099 567.302 165.82 587.168 166.628C606.186 167.402 617.893 166.226 630.5 162.274C645.15 157.682 653.58 152.034 661.417 141.555C667.828 132.985 670.5 124.583 670.5 113C670.5 95.8771 664.055 86.7401 647.623 80.5691L642.746 78.7381L649.614 75.119C657.533 70.946 668.969 60.6151 672.68 54.2821C676.255 48.1821 679 38.7621 679 32.5921C679 8.10906 656.854 -3.65495 619.758 1.12105ZM790.374 0.63506C786.132 1.57506 783.784 6.14106 773.939 32.5871C751.357 93.2461 742.821 113.484 734.605 125.842C724.287 141.363 708.469 151.481 704.912 144.836C702.221 139.808 706.114 127.219 722.583 87.702C727.998 74.709 728.234 73.805 726.631 72.202C724.032 69.603 712.716 69.8081 710.148 72.5001C708.057 74.6931 700.699 92.0491 690.406 119.064C684.977 133.315 683.672 137.881 683.264 144.06C682.846 150.397 683.103 152.281 684.855 155.715C686.004 157.968 688.194 160.804 689.722 162.018C692.197 163.984 693.306 164.165 699.894 163.678C708.979 163.008 716.602 159.502 726.175 151.594L732.849 146.08L730.287 153.021C727.06 161.761 727.758 163.007 735.872 162.985C738.968 162.976 742.097 162.591 742.827 162.128C743.961 161.409 746.662 154.599 754.619 132.394C757.699 123.798 766.258 118.877 769.051 124.095C769.668 125.247 770.598 130.713 771.118 136.241C772.306 148.869 775.102 156.191 780.346 160.407C783.841 163.218 784.845 163.5 791.346 163.5C797.456 163.5 799.228 163.072 803.485 160.57C806.227 158.958 810.549 155.696 813.089 153.32C815.629 150.944 817.989 149 818.333 149C818.677 149 820.863 151.065 823.189 153.589C829.456 160.389 835.298 163 844.238 163C860.954 163 877.083 154.746 885.168 142.054C889.633 135.044 888.661 127 883.348 127C881.476 127 878.934 128.877 874.094 133.834C862.106 146.111 847.039 151.117 840.488 145C836.557 141.331 834.728 137.377 835.924 135.142C836.466 134.129 839.742 132.28 843.205 131.031C860.984 124.621 876.555 111.761 883.445 97.796C888.226 88.106 888.898 81.956 885.819 76.059C882.04 68.82 879.396 67.5001 868.673 67.5001C859.923 67.5001 859.154 67.6821 852 71.4501C834.522 80.6541 821.592 99.3721 817.041 122.054C816.076 126.864 814.296 132.403 813.085 134.362C810.564 138.442 805.112 143.025 799.723 145.595C796.069 147.338 795.981 147.33 793.588 145.083C790.576 142.253 789.527 139.577 787.581 129.756C786.737 125.497 785.138 120.23 784.027 118.053L782.007 114.093L791.253 107.223C811.845 91.925 819.332 83.8901 820.668 75.6601C821.232 72.1811 821.081 71.9321 817.488 70.4311C815.26 69.5001 812.654 69.1211 811.122 69.5061C809.695 69.8641 804.233 74.2841 798.985 79.3281C790.761 87.2331 767.633 105 765.567 105C764.463 105 765.477 102.328 778.485 70.9531C792.736 36.5821 804 7.09906 804 4.16906C804 3.04106 803.561 1.84706 803.024 1.51506C801.661 0.673065 792.942 0.0670599 790.374 0.63506ZM649.487 20.5C665.636 28.601 658.067 51.489 634.972 64.391C629.798 67.282 612.294 71.9781 606.643 71.9911C603.379 71.9991 602.889 71.7311 603.458 70.2501C604.977 66.2931 622.127 20.3971 622.548 19.1641C623.314 16.9161 644.43 17.963 649.487 20.5ZM725.898 29.258C721.559 32.142 718 39.126 718 44.757C718 56.372 731.96 57.415 738.687 46.304C741.257 42.059 741.82 33.651 739.718 30.913C736.391 26.58 730.915 25.924 725.898 29.258ZM130 35.706C127.668 36.559 123.954 40.2231 122.405 43.2001C119.584 48.6211 121.446 58.806 125.545 60.379C133.964 63.61 143 55.894 143 45.473C143 37.921 136.762 33.234 130 35.706ZM485.093 71.3061C481.915 72.4201 481.293 73.4401 475.831 86.5001C462.734 117.819 457 135.443 457 144.384C457 146.173 457.696 149.981 458.547 152.846C461.733 163.574 471.68 166.738 485.668 161.473C492.876 158.76 497.065 156.024 503.692 149.699L507.884 145.698L505.403 153.599C501.961 164.566 497.994 174.886 496.979 175.513C496.512 175.802 491.937 176.755 486.814 177.63C476.522 179.389 464.155 183.547 457.342 187.54C446.314 194.003 436.785 206.884 435.377 217.236C432.793 236.218 452.603 247.738 472.312 238.715C485.069 232.874 493.421 224.242 503.204 206.786C506.507 200.893 509.864 195.528 510.664 194.864C511.463 194.2 515.951 193.091 520.635 192.398C531.558 190.783 537.915 187.697 540.279 182.861C541.732 179.89 541.845 178.754 540.894 176.666C540.253 175.26 539.228 173.926 538.615 173.7C538.002 173.475 533.492 173.883 528.593 174.607C519.195 175.996 518 175.848 518 173.295C518 172.422 525.22 150.108 534.046 123.709C542.871 97.31 549.954 75.0001 549.787 74.1311C549.331 71.7621 545.091 70.0311 539.705 70.0151C532.749 69.9931 531.221 72.0311 525.463 89.0191C518.712 108.933 509.741 126.787 502.457 134.807C496.214 141.681 488.084 146.976 483.75 146.991C479.763 147.004 477 143.784 477 139.123C477 134.018 484.01 113.795 493.422 91.7501C497.59 81.9881 501 73.5661 501 73.0361C501 70.1041 491.479 69.0691 485.093 71.3061ZM117.263 72.722C113.356 73.208 111.847 75.2 108.371 84.465C106.919 88.334 102.016 100.963 97.474 112.528C84.524 145.51 83.434 150.046 86.578 157.903C88.525 162.769 93.493 165.506 98.813 164.643C104.534 163.715 105.489 162.03 105.579 152.714C105.647 145.643 106.324 142.551 110.443 130.5C115.098 116.88 124.729 92.0851 128.893 83.0001C133.466 73.0241 131.168 70.994 117.263 72.722ZM870 83.8841C870 88.1831 862.726 101.886 857.809 106.85C853.517 111.184 842.653 118.169 838.114 119.514C835.895 120.172 835.778 120.021 836.442 117.361C840.013 103.069 849.993 89.6581 861.238 84.0391C868.842 80.2391 870 80.2191 870 83.8841ZM285.066 85.0351C287.843 86.5221 287.507 89.3081 282.957 102.502C278.228 116.217 274.962 122.906 268.331 132.46C260.505 143.734 252.931 148.174 246.968 144.983C240.353 141.442 244.238 120.603 254.558 104.273C263.967 89.3841 277.383 80.9241 285.066 85.0351ZM627.504 92.0011C636.89 94.4011 642.966 97.778 646.691 102.662C648.945 105.616 649.522 107.545 649.841 113.184C650.188 119.327 649.887 120.787 647.115 126.417C643.207 134.355 636.975 140.169 627.686 144.542C619.002 148.631 611.076 150.001 596.5 149.935C581.634 149.867 577.589 149.095 577.182 146.249C577.007 145.027 580.945 132.775 585.932 119.024C590.919 105.273 595 93.6571 595 93.2111C595 90.7071 597.983 90.0001 608.54 90.0001C616.409 90.0001 621.978 90.5881 627.504 92.0011ZM488 195.131C488 197.668 479.252 212.44 474.776 217.462C467.145 226.024 457.869 228.397 455.171 222.477C453.532 218.879 453.704 216.495 455.912 212.21C459.713 204.837 467.66 199.338 479.5 195.89C486.76 193.776 488 193.665 488 195.131Z" fill="#fff"/>
</svg>
